<svg width="570" height="646" xmlns="http://www.w3.org/2000/svg" xmlns:xlink="http://www.w3.org/1999/xlink" xml:space="preserve" overflow="hidden"><g transform="translate(-422 -1)"><path d="M678.252 424.306C684.959 425.974 698.807 429.304 707.935 430.293 710.895 429.265 723.123 425.804 737.618 424.306 733.604 515.378 720.808 563.658 707.935 641.96 695.158 538.73 680.877 464.938 678.252 424.306ZM810.254 350.406C884.006 418.397 936.8 447.257 976.935 483.21 927.926 482.6 818.409 426.847 779.613 401.457 780.177 401.408 782.28 399.795 782.821 399.296 792.544 389.191 798.422 378.432 805.518 365.655 805.756 360.239 808.782 356.563 810.254 350.406ZM605.615 350.406C607.676 354.522 609.862 362.472 610.351 365.655 615.329 376.664 623.5 389.077 633.049 399.296 634.322 399.804 636.009 401.136 636.257 401.457 604.001 430.101 474.772 467.13 438.935 483.21 496.329 416.225 561.25 403.653 605.615 350.406ZM976.935 165.71C895.006 210.673 840.353 295.433 810.254 298.517 809.112 294.872 804.75 285.511 805.518 283.265 800.554 270.382 794.365 258.54 782.821 249.625 782.006 248.75 780.259 248.035 779.613 247.464 856.304 208.27 941.155 166.934 976.935 165.71ZM438.935 165.71C490.152 201.345 609.569 239.277 636.257 247.464 634.886 248.796 633.66 249.331 633.049 249.625 621.493 258.848 614.791 270.885 610.351 283.265 608.408 287.545 606.929 294.083 605.615 298.517 518.718 240.371 514.873 221.078 438.935 165.71ZM707.935 6.96017C705.315 87.5267 736.03 118 737.618 224.617 727.614 223.676 719.613 218.979 707.935 218.628 696.063 221.654 689.375 224.644 678.252 224.617 702.915 173.91 682.624 105.344 707.935 6.96017Z" fill="#323A46" fill-rule="evenodd" fill-opacity="0.14902"/><path d="M678.752 424.806C685.951 425.822 701.526 430.246 708.435 430.793 714.485 431.851 725.366 426.66 738.118 424.806 716.927 493.456 729.141 542.473 708.435 642.46 711.501 536.012 668.113 473.025 678.752 424.806ZM810.754 350.906C887.199 406.655 912.265 452.568 977.435 483.71 878.753 456.567 817.096 411.64 780.113 401.957 781.223 401.557 782.738 400.166 783.321 399.796 792.609 390.888 799.562 379.143 806.019 366.155 807.212 362.251 807.67 357.579 810.754 350.906ZM606.115 350.906C607.741 352.861 610.175 363.86 610.852 366.155 616.652 376.408 623.103 389.113 633.549 399.796 634.564 400.365 635.707 401.448 636.757 401.957 604.523 399.215 538.738 453.429 439.435 483.71 461.687 456.786 519.701 406.626 606.115 350.906ZM977.435 166.21C898.59 205.778 831.101 285.86 810.754 299.017 807.673 292.33 807.357 288.575 806.019 283.765 800.834 270.775 792.814 261.805 783.321 250.125 781.632 249.289 781.593 249.187 780.113 247.964 850.93 216.806 898.348 187.934 977.435 166.21ZM439.435 166.21C516.935 207.17 539.7 216.387 636.757 247.964 635.776 248.246 634.649 249.134 633.549 250.125 621.351 259.461 617.705 272.476 610.852 283.765 608.538 287.51 607.12 294.861 606.115 299.017 528.883 252.051 526.092 224.662 439.435 166.21ZM708.435 7.46037C714.87 35.8444 740.557 154.008 738.118 225.117 733.009 221.58 721.313 223.733 708.435 219.128 695.82 220.61 684.569 224.222 678.752 225.117 677.251 187.265 713.593 74.5485 708.435 7.46037Z" stroke="#000000" stroke-width="0" stroke-miterlimit="8" stroke-opacity="0" fill="none" fill-rule="evenodd"/><path d="M592.935 323.96C592.935 259.342 645.094 206.96 709.435 206.96 773.775 206.96 825.935 259.342 825.935 323.96 825.935 388.577 773.775 440.961 709.435 440.961 645.094 440.961 592.935 388.577 592.935 323.96Z" fill="#FF6C37" fill-rule="evenodd"/><path d="M430.512 157.667C445.585 132.581 478.141 124.464 503.227 139.536 528.315 154.61 536.432 187.166 521.358 212.253 506.285 237.339 473.728 245.457 448.641 230.384 423.555 215.31 415.438 182.753 430.512 157.667Z" fill="#00AC9E" fill-rule="evenodd"/><path d="M891.512 436.667C906.585 411.581 939.141 403.464 964.227 418.538 989.315 433.611 997.432 466.166 982.358 491.252 967.284 516.34 934.728 524.457 909.641 509.383 884.555 494.31 876.438 461.753 891.512 436.667Z" fill="#00AC9E" fill-rule="evenodd"/><path d="M705.935 1.96041C735.206 1.96041 758.935 25.6898 758.935 54.9603 758.935 84.2312 735.206 107.961 705.935 107.961 676.664 107.961 652.935 84.2312 652.935 54.9603 652.935 25.6898 676.664 1.96041 705.935 1.96041Z" fill="#0D87FF" fill-rule="evenodd"/><path d="M705.935 539.96C735.206 539.96 758.935 563.69 758.935 592.96 758.935 622.231 735.206 645.961 705.935 645.961 676.664 645.961 652.935 622.231 652.935 592.96 652.935 563.69 676.664 539.96 705.935 539.96Z" fill="#0D87FF" fill-rule="evenodd"/><path d="M430.512 489.254C415.438 464.168 423.555 431.611 448.641 416.537 473.728 401.464 506.285 409.582 521.358 434.668 536.432 459.754 528.315 492.31 503.227 507.383 478.141 522.457 445.585 514.34 430.512 489.254Z" fill="#FF6C37" fill-rule="evenodd"/><path d="M893.512 212.253C878.438 187.166 886.555 154.61 911.641 139.538 936.728 124.464 969.284 132.581 984.358 157.667 999.432 182.753 991.315 215.31 966.227 230.384 941.141 245.457 908.585 237.339 893.512 212.253Z" fill="#FF6C37" fill-rule="evenodd"/></g></svg>