<svg width="226" height="227" xmlns="http://www.w3.org/2000/svg" xmlns:xlink="http://www.w3.org/1999/xlink" xml:space="preserve" overflow="hidden"><g transform="translate(-1593 -1106)"><path d="M1809.21 1209.97C1814.58 1215.34 1818.93 1219.69 1818.93 1219.69L1706.11 1332.51C1706.11 1332.51 1701.76 1328.16 1696.39 1322.79L1603.01 1229.41C1597.64 1224.04 1593.29 1219.69 1593.29 1219.69L1706.11 1106.87C1706.11 1106.87 1710.46 1111.22 1715.83 1116.59Z" fill="#0D84F8" fill-rule="evenodd"/><path d="M1748 1219C1748 1242.75 1728.75 1262 1705 1262 1681.25 1262 1662 1242.75 1662 1219 1662 1195.25 1681.25 1176 1705 1176 1728.75 1176 1748 1195.25 1748 1219Z" fill="#FF6C37" fill-rule="evenodd"/></g></svg>