<svg width="798" height="189" xmlns="http://www.w3.org/2000/svg" xmlns:xlink="http://www.w3.org/1999/xlink" overflow="hidden"><defs><clipPath id="clip0"><rect x="0" y="0" width="798" height="189"/></clipPath></defs><g clip-path="url(#clip0)"><rect x="0" y="0" width="798" height="188.882" fill="#FFFFFF" fill-opacity="0"/><path d="M416.758 39.9749C431.864 39.9749 443.555 45.0629 451.831 55.2388 452.629 56.2812 453.028 57.1499 453.028 57.8447 453.028 58.6886 451.707 61.183 449.064 65.3277 446.422 69.4726 444.827 71.545 444.278 71.545 443.63 71.545 442.11 70.3288 439.717 67.8966 436.775 64.9183 434.008 62.6845 431.416 61.1954 427.128 58.763 422.392 57.547 417.207 57.547 407.336 57.547 399.658 61.2946 394.174 68.7901 389.288 75.4913 386.845 83.9298 386.845 94.1057 386.845 104.282 389.263 112.795 394.099 119.645 399.583 127.339 407.236 131.186 417.057 131.186 421.943 131.186 426.655 129.97 431.191 127.537 434.183 125.949 437.224 123.69 440.315 120.762 442.907 118.329 444.328 117.113 444.578 117.113 444.877 117.113 446.522 119.086 449.513 123.033 452.504 126.979 454 129.151 454 129.548 454 130.143 453.526 130.987 452.579 132.079 442.857 143.298 430.817 148.907 416.459 148.907 401.503 148.907 389.537 143.471 380.564 132.6 372.188 122.474 368 109.816 368 94.6269 368 79.4376 372.263 66.7301 380.788 56.5046 389.862 45.4848 401.852 39.9749 416.758 39.9749Z" fill="#FFFFFF" fill-rule="evenodd"/><path d="M587.027 40.9743C587.525 40.9743 588.222 41.9934 589.118 44.0316 601.166 70.479 611.522 94.0928 620.185 114.873 622.226 119.745 623.446 122.181 623.844 122.181 624.342 122.181 625.413 120.192 627.056 116.215 633.827 100.108 643.211 76.1961 655.21 44.479 655.957 42.5402 656.778 41.5709 657.674 41.5709 659.367 41.5709 661.919 41.6702 665.329 41.8691 668.739 42.068 671.291 42.1674 672.984 42.1674 674.228 42.1674 674.851 42.764 674.851 43.957 674.851 49.6741 674.664 58.262 674.291 69.7209 673.917 81.1798 673.73 89.7677 673.73 95.4847 673.73 100.953 673.942 109.156 674.365 120.093 674.789 131.03 675 139.208 675 144.626 675 145.869 674.378 146.49 673.133 146.49 672.237 146.49 670.88 146.416 669.063 146.267 667.246 146.118 665.889 146.043 664.993 146.043 664.097 146.043 662.728 146.118 660.886 146.267 659.043 146.416 657.674 146.49 656.778 146.49 655.534 146.49 654.911 145.67 654.911 144.03 654.911 137.716 655.11 128.246 655.509 115.619 655.907 102.991 656.106 93.5211 656.106 87.2075 656.106 86.263 655.907 85.7907 655.509 85.7907 655.061 85.7907 654.712 86.0641 654.463 86.611 651.924 92.0297 645.925 106.496 636.465 130.011 634.922 134.534 632.706 140.177 629.819 146.938 629.47 147.584 627.678 147.907 624.442 147.907 619.762 147.907 617.173 147.485 616.675 146.64 614.982 142.613 612.568 136.97 609.431 129.712 605.299 119.869 598.951 105.204 590.388 85.7162 590.238 85.3681 589.915 85.0201 589.417 84.6722 589.018 84.9705 588.819 85.5173 588.819 86.3127 588.819 92.7257 588.931 102.345 589.155 115.171 589.38 127.997 589.492 137.617 589.492 144.03 589.492 145.67 588.869 146.49 587.625 146.49 586.778 146.49 585.484 146.416 583.741 146.267 581.999 146.118 580.704 146.043 579.858 146.043 578.962 146.043 577.63 146.118 575.862 146.267 574.095 146.416 572.763 146.49 571.867 146.49 570.622 146.49 570 146.018 570 145.074 570 139.556 570.261 131.291 570.784 120.279 571.307 109.268 571.568 101.003 571.568 95.4847 571.568 89.7677 571.307 81.1798 570.784 69.7209 570.261 58.262 570 49.6741 570 43.957 570 43.0125 570.573 42.4657 571.718 42.3166 578.489 41.4216 583.592 40.9743 587.027 40.9743Z" fill="#315AFE" fill-rule="evenodd"/><path d="M512.06 41.9736C523.255 41.9736 532.232 44.5995 538.989 49.8512 546.453 55.6478 550.185 63.8722 550.185 74.5242 550.185 81.8566 549.176 87.6285 547.159 91.8398 545.041 96.2987 541.107 100.535 535.358 104.548 534.4 105.192 533.921 105.811 533.921 106.406 533.921 107.099 536.934 113.689 542.961 126.174 548.987 138.659 552 145.298 552 146.09 552 146.487 551.597 146.685 550.79 146.685 549.832 146.685 548.369 146.611 546.402 146.462 544.436 146.313 542.973 146.239 542.015 146.239 540.956 146.239 539.38 146.313 537.287 146.462 535.194 146.611 533.619 146.685 532.56 146.685 531.4 146.685 530.517 146.066 529.912 144.827 528.298 141.458 523.709 131.029 516.145 113.54 515.388 111.756 513.548 110.666 510.623 110.27 509.967 110.221 507.673 110.196 503.739 110.196 496.78 110.196 492.645 110.295 491.333 110.493 490.274 110.642 489.745 111.905 489.745 114.283 489.745 117.751 489.909 122.941 490.237 129.852 490.564 136.764 490.728 141.929 490.728 145.347 490.728 146.388 490.224 146.908 489.215 146.908 488.207 146.908 486.681 146.796 484.639 146.574 482.597 146.351 481.046 146.239 479.987 146.239 479.129 146.239 477.818 146.313 476.053 146.462 474.288 146.611 472.977 146.685 472.12 146.685 470.859 146.685 470.229 146.115 470.229 144.976 470.229 139.476 470.493 131.215 471.023 120.191 471.552 109.168 471.817 100.906 471.817 95.4069 471.817 79.751 471.237 63.0546 470.077 45.3179L470.002 44.1288C469.951 43.138 471.01 42.6426 473.179 42.6426 477.516 42.6426 484.009 42.531 492.657 42.3082 501.306 42.0852 507.773 41.9736 512.06 41.9736ZM502.453 57.3572C494.284 57.3572 490.123 58.0012 489.972 59.2894 489.619 61.9647 489.442 69.1238 489.442 80.7667L489.442 94.961C489.594 95.0601 489.921 95.1592 490.426 95.2583 491.333 95.3573 492.821 95.4812 494.889 95.6299 499.68 95.8775 504.849 96.0014 510.396 96.0014 524.314 96.0014 531.274 90.2296 531.274 78.6858 531.274 69.7184 528.651 63.7236 523.407 60.7014 519.523 58.4718 512.539 57.3572 502.453 57.3572Z" fill="#FFFFFF" fill-rule="evenodd"/><path d="M197.374 123.5C199.319 123.986 203.334 124.955 205.981 125.243 206.84 124.944 210.385 123.936 214.588 123.5 213.424 150.016 209.714 164.073 205.981 186.871 202.276 156.815 198.135 135.33 197.374 123.5ZM235.65 101.983C257.035 121.779 272.344 130.182 283.981 140.65 269.77 140.473 238.014 124.24 226.765 116.847 226.929 116.833 227.538 116.363 227.695 116.218 230.515 113.276 232.219 110.143 234.277 106.423 234.346 104.846 235.223 103.776 235.65 101.983ZM176.312 101.983C176.91 103.182 177.544 105.497 177.686 106.423 179.129 109.629 181.498 113.243 184.267 116.218 184.636 116.366 185.125 116.754 185.197 116.847 175.844 125.187 138.373 135.968 127.981 140.65 144.623 121.147 163.448 117.487 176.312 101.983ZM283.981 48.2082C260.225 61.2994 244.377 85.9778 235.65 86.8756 235.319 85.8143 234.054 83.089 234.277 82.435 232.837 78.6841 231.043 75.236 227.695 72.6405 227.459 72.3857 226.952 72.1776 226.765 72.0112 249.003 60.5997 273.606 48.5646 283.981 48.2082ZM127.981 48.2082C142.832 58.5836 177.459 69.6277 185.197 72.0112 184.8 72.3991 184.444 72.555 184.267 72.6405 180.916 75.3259 178.973 78.8305 177.686 82.435 177.122 83.6813 176.693 85.5847 176.312 86.8756 151.115 69.9462 150 64.3288 127.981 48.2082ZM205.981 1.98718C205.221 25.4446 214.128 34.3172 214.588 65.3592 211.687 65.0854 209.367 63.7176 205.981 63.6154 202.539 64.4966 200.6 65.3672 197.374 65.3592 204.526 50.5955 198.642 30.6323 205.981 1.98718Z" fill="#323A46" fill-rule="evenodd" fill-opacity="0.14902"/><path d="M197.874 124C199.962 124.296 204.478 125.584 206.481 125.743 208.235 126.051 211.39 124.539 215.088 124 208.944 143.987 212.485 158.259 206.481 187.371 207.37 156.378 194.789 138.039 197.874 124ZM236.15 102.483C258.316 118.715 265.584 132.083 284.481 141.15 255.867 133.247 237.989 120.166 227.265 117.347 227.587 117.23 228.026 116.826 228.195 116.718 230.889 114.124 232.905 110.704 234.777 106.923 235.123 105.786 235.256 104.426 236.15 102.483ZM176.812 102.483C177.284 103.052 177.989 106.255 178.186 106.923 179.868 109.908 181.738 113.607 184.767 116.718 185.061 116.884 185.393 117.199 185.697 117.347 176.35 116.549 157.275 132.333 128.481 141.15 134.933 133.311 151.755 118.706 176.812 102.483ZM284.481 48.7079C261.619 60.2282 242.05 83.5446 236.15 87.3753 235.257 85.4285 235.165 84.335 234.777 82.9347 233.273 79.1525 230.948 76.5408 228.195 73.1402 227.706 72.8969 227.694 72.8669 227.265 72.5109 247.799 63.4392 261.549 55.033 284.481 48.7079ZM128.481 48.7079C150.953 60.6337 157.554 63.3171 185.697 72.5109 185.413 72.5931 185.086 72.8517 184.767 73.1402 181.23 75.8583 180.173 79.6477 178.186 82.9347 177.515 84.0251 177.104 86.1652 176.812 87.3753 154.418 73.701 153.608 65.7263 128.481 48.7079ZM206.481 2.48692C208.347 10.7511 215.795 45.1552 215.088 65.8589 213.607 64.829 210.215 65.4559 206.481 64.1151 202.823 64.5466 199.561 65.5985 197.874 65.8589 197.439 54.8381 207.977 22.02 206.481 2.48692Z" stroke="#000000" stroke-width="0" stroke-miterlimit="8" stroke-opacity="0" fill="none" fill-rule="evenodd"/><path d="M172.981 93.9295C172.981 75.1633 187.98 59.9509 206.481 59.9509 224.983 59.9509 239.981 75.1633 239.981 93.9295 239.981 112.695 224.983 127.908 206.481 127.908 187.98 127.908 172.981 112.695 172.981 93.9295Z" fill="#FF6C37" fill-rule="evenodd"/><path d="M125.197 46.2353C129.605 39.1399 139.126 36.8441 146.463 41.1071 153.8 45.3705 156.173 54.5789 151.765 61.6744 147.357 68.7697 137.835 71.0659 130.499 66.8026 123.162 62.5391 120.789 53.3307 125.197 46.2353Z" fill="#00AC9E" fill-rule="evenodd"/><path d="M259.197 127.184C263.605 120.089 273.126 117.793 280.463 122.057 287.8 126.32 290.173 135.528 285.765 142.624 281.357 149.719 271.835 152.015 264.499 147.752 257.162 143.488 254.789 134.28 259.197 127.184Z" fill="#00AC9E" fill-rule="evenodd"/><path d="M205.481-0.0115911C214.041-0.0115911 220.981 6.92381 220.981 15.4787 220.981 24.0337 214.041 30.9691 205.481 30.9691 196.921 30.9691 189.981 24.0337 189.981 15.4787 189.981 6.92381 196.921-0.0115911 205.481-0.0115911Z" fill="#0D87FF" fill-rule="evenodd"/><path d="M205.481 156.89C214.041 156.89 220.981 163.825 220.981 172.38 220.981 180.935 214.041 187.871 205.481 187.871 196.921 187.871 189.981 180.935 189.981 172.38 189.981 163.825 196.921 156.89 205.481 156.89Z" fill="#0D87FF" fill-rule="evenodd"/><path d="M125.197 142.381C120.789 135.049 123.162 125.534 130.499 121.128 137.835 116.723 147.357 119.096 151.765 126.428 156.173 133.759 153.8 143.274 146.463 147.68 139.126 152.086 129.605 149.713 125.197 142.381Z" fill="#FF6C37" fill-rule="evenodd"/><path d="M260.197 61.4316C255.789 54.0997 258.162 44.5843 265.499 40.1792 272.835 35.7736 282.357 38.1459 286.765 45.4778 291.173 52.8098 288.8 62.3253 281.463 66.7308 274.126 71.1364 264.605 68.7636 260.197 61.4316Z" fill="#FF6C37" fill-rule="evenodd"/></g></svg>