<svg width="255" height="76" viewBox="0 0 255 76" fill="none" xmlns="http://www.w3.org/2000/svg">
<rect x="32.8203" width="46.4145" height="46.4145" rx="4" transform="rotate(45 32.8203 0)" fill="#0D84F8"/>
<g filter="url(#filter0_dddd_0_1)">
<circle cx="32.4835" cy="32.6242" r="12.4445" fill="#FF6C37"/>
</g>
<path d="M180.806 64.6456C178.346 64.6456 176.469 62.447 176.855 60.018L185.696 4.36655C186.005 2.42405 187.68 0.994141 189.647 0.994141H196.596C198.241 0.994141 199.719 2.00186 200.319 3.53379L211.064 30.9326C212.226 33.8947 216.213 34.3807 218.052 31.7843L238.666 2.68207C239.416 1.62338 240.633 0.994141 241.93 0.994141H249.441C251.901 0.994141 253.778 3.19273 253.392 5.62173L244.551 61.2732C244.242 63.2157 242.567 64.6456 240.6 64.6456H233.711C231.252 64.6456 229.376 62.4481 229.761 60.0196L231.898 46.5284C232.558 42.3648 227.16 40.1448 224.699 43.5676L217.494 53.5906C216.743 54.6361 215.534 55.2559 214.246 55.2559H209.994C208.395 55.2559 206.95 54.3038 206.319 52.8347L202.059 42.9197C200.478 39.2386 195.068 39.9102 194.434 43.8662L191.647 61.2779C191.336 63.2183 189.662 64.6456 187.697 64.6456H180.806Z" fill="#1D3AF3"/>
<path d="M116.877 64.6456C114.418 64.6456 112.541 62.447 112.927 60.018L121.768 4.36655C122.076 2.42405 123.751 0.994141 125.718 0.994141H149.66C156.943 0.994141 162.511 2.61928 166.363 5.86957C170.275 9.05966 172.231 13.4837 172.231 19.1416C172.231 25.1606 170.636 29.8856 167.446 33.3164C165.478 35.4358 163.118 37.1031 160.364 38.3182C158.874 38.9758 158.484 41.976 159.501 43.2479C160.705 44.6924 161.728 46.4681 162.571 48.5747L166.637 59.2181C167.637 61.8368 165.703 64.6456 162.9 64.6456H154.502C152.838 64.6456 151.348 63.615 150.76 62.0578L144.514 45.505C143.912 43.8197 143.099 42.646 142.076 41.9839C141.113 41.2616 139.759 40.9004 138.013 40.9004H136.008C134.042 40.9004 132.368 42.3286 132.058 44.2696L129.342 61.2764C129.032 63.2174 127.358 64.6456 125.392 64.6456H116.877ZM135.132 24.5394C134.748 26.9673 136.625 29.1633 139.083 29.1633H146.41C153.091 29.1633 156.431 26.3343 156.431 20.6764C156.431 18.329 155.649 16.5835 154.084 15.4399C152.579 14.2962 150.172 13.7244 146.861 13.7244H140.257C138.289 13.7244 136.613 15.1564 136.306 17.1006L135.132 24.5394Z" fill="#000938"/>
<path d="M84.5174 65.6377C78.6187 65.6377 73.3219 64.5543 68.6271 62.3874C63.9924 60.1604 60.3208 56.88 57.6122 52.5463C54.9638 48.1524 53.6396 42.7653 53.6396 36.3851C53.6396 31.2689 54.4221 26.5139 55.9871 22.12C57.552 17.7261 59.8393 13.8739 62.8488 10.5634C65.9185 7.25295 69.6804 4.66476 74.1345 2.79885C78.6488 0.932951 83.8252 0 89.6637 0C93.9974 0 98.0903 0.662096 101.943 1.98629C104.585 2.85344 106.846 3.90473 108.723 5.14016C110.193 6.10705 110.542 8.03579 109.782 9.62229L106.943 15.5474C105.851 17.8256 102.952 18.5055 100.717 17.328C97.0699 15.4065 93.265 14.4457 89.3025 14.4457C85.2697 14.4457 81.8991 15.4088 79.1905 17.3349C76.5421 19.2008 74.5257 21.7589 73.1414 25.0091C71.8172 28.1992 71.1551 31.7806 71.1551 35.7531C71.1551 41.0499 72.389 44.9623 74.8568 47.4903C77.3246 49.9581 81.2069 51.192 86.5036 51.192C88.8511 51.192 91.2888 50.8008 93.8168 50.0183C94.9145 49.6785 96.0349 49.2423 97.178 48.7096C99.5754 47.5924 102.553 48.6299 103.353 51.1509L105.077 56.5852C105.581 58.1745 105.06 59.9372 103.625 60.7858C102.465 61.4715 101.182 62.0957 99.7756 62.6583C97.368 63.6213 94.84 64.3436 92.1917 64.8251C89.5433 65.3669 86.9852 65.6377 84.5174 65.6377Z" fill="#000938"/>
<defs>
<filter id="filter0_dddd_0_1" x="11.8637" y="20.1797" width="41.2394" height="54.8651" filterUnits="userSpaceOnUse" color-interpolation-filters="sRGB">
<feFlood flood-opacity="0" result="BackgroundImageFix"/>
<feColorMatrix in="SourceAlpha" type="matrix" values="0 0 0 0 0 0 0 0 0 0 0 0 0 0 0 0 0 0 127 0" result="hardAlpha"/>
<feOffset dy="2.72513"/>
<feGaussianBlur stdDeviation="1.36256"/>
<feColorMatrix type="matrix" values="0 0 0 0 0 0 0 0 0 0 0 0 0 0 0 0 0 0 0.1 0"/>
<feBlend mode="normal" in2="BackgroundImageFix" result="effect1_dropShadow_0_1"/>
<feColorMatrix in="SourceAlpha" type="matrix" values="0 0 0 0 0 0 0 0 0 0 0 0 0 0 0 0 0 0 127 0" result="hardAlpha"/>
<feOffset dy="5.45026"/>
<feGaussianBlur stdDeviation="2.72513"/>
<feColorMatrix type="matrix" values="0 0 0 0 0 0 0 0 0 0 0 0 0 0 0 0 0 0 0.09 0"/>
<feBlend mode="normal" in2="effect1_dropShadow_0_1" result="effect2_dropShadow_0_1"/>
<feColorMatrix in="SourceAlpha" type="matrix" values="0 0 0 0 0 0 0 0 0 0 0 0 0 0 0 0 0 0 127 0" result="hardAlpha"/>
<feOffset dy="13.6256"/>
<feGaussianBlur stdDeviation="4.08769"/>
<feColorMatrix type="matrix" values="0 0 0 0 0 0 0 0 0 0 0 0 0 0 0 0 0 0 0.05 0"/>
<feBlend mode="normal" in2="effect2_dropShadow_0_1" result="effect3_dropShadow_0_1"/>
<feColorMatrix in="SourceAlpha" type="matrix" values="0 0 0 0 0 0 0 0 0 0 0 0 0 0 0 0 0 0 127 0" result="hardAlpha"/>
<feOffset dy="21.801"/>
<feGaussianBlur stdDeviation="4.08769"/>
<feColorMatrix type="matrix" values="0 0 0 0 0 0 0 0 0 0 0 0 0 0 0 0 0 0 0.01 0"/>
<feBlend mode="normal" in2="effect3_dropShadow_0_1" result="effect4_dropShadow_0_1"/>
<feBlend mode="normal" in="SourceGraphic" in2="effect4_dropShadow_0_1" result="shape"/>
</filter>
</defs>
</svg>
